<?xml version="1.0" encoding="utf-8"?>
<!-- Generator: Adobe Illustrator 27.2.0, SVG Export Plug-In . SVG Version: 6.00 Build 0)  -->
<svg version="1.1" id="Layer_1" xmlns="http://www.w3.org/2000/svg" xmlns:xlink="http://www.w3.org/1999/xlink" x="0px" y="0px"
	 viewBox="0 0 235 49.6" style="enable-background:new 0 0 235 49.6;" xml:space="preserve">
<style type="text/css">
	.st0{fill-rule:evenodd;clip-rule:evenodd;fill:#EF5126;}
	.st1{fill:#FFFFFF;}
	.st2{fill:#EF5126;}
</style>
<g>
	<g>
		<g>
			<path class="st0" d="M33.5,32.4c-0.4,2-1.3,2.9-2.1,3.8c-0.9,1-2.6,1-3.4,0c-0.9-1-2-1.7-4-1.8c-3.4-0.1-3.2,1.7-6.9,1.7
				c-3.6,0-4-1.9-6.2-1.9c-2,0-2.9,0.8-4.4,1.9c-1.3,1-3.4,0.7-4.3-0.6c-1.6-2.4-2.4-5.1-2.3-8c0.1-3,1.1-6.2,2.5-8.8
				c0.2-0.3,0.8-0.3,0.9,0.1c0.3,2.3,1.4,4.3,2.4,5.5c0.3,0.3,0.9,0.1,0.8-0.3c-1.2-5.6-0.1-9.9,3.6-15c2.2-3,4.7-6,5.5-8.6
				c0.1-0.4,0.7-0.4,0.9,0c1.6,3.8,0.4,7.9-0.4,11.6c-0.7,3.3-0.9,7.4,1.8,10c0.3,0.3,0.9,0.1,0.8-0.3c-0.7-5.1,0.7-9.8,4.5-12.7
				c0.3-0.2,0.8,0,0.8,0.3c-0.6,6.2,4.9,8.8,4.1,16.3c0,0.4,0.5,0.6,0.8,0.3c1.5-1.6,2.4-3.5,2.7-5.5c0.1-0.4,0.7-0.5,0.9-0.1
				C34.4,24,34.2,28.6,33.5,32.4z"/>
		</g>
		<g>
			<path class="st1" d="M33.1,39c-0.1,0-2.7-0.9-7.8-0.9c-3.1,0-4.6,0.4-5.9,0.7c-0.9,0.2-1.5,0.4-2.4,0.4c-0.9,0-1.6-0.2-2.4-0.4
				c-1.3-0.3-2.8-0.7-5.9-0.7C3.6,38.1,1,39,0.9,39c-0.1,0-0.2,0.2-0.2,0.3l0.1,2.4c0,0.1,0.1,0.3,0.3,0.3c0,0,0.5,0.1,0.6,1
				c0.2,1.2,0.6,4.9,2.3,5.6c1.2,0.5,3.8,1.1,5.9,1c0.6,0,1.2-0.1,1.7-0.2c0,0,0,0,0,0c0.1,0,0.2-0.1,0.3-0.1c2-0.8,3.6-3.5,4.2-7.1
				c0-0.1,0.1-0.2,0.3-0.2h1.2c0.1,0,0.3,0.1,0.3,0.2c0.6,3.6,2.2,6.3,4.2,7.1c0.1,0,0.2,0.1,0.3,0.1c0.5,0.1,1.1,0.2,1.7,0.2
				c0.1,0,0.3,0,0.4,0c2,0,4.4-0.5,5.5-1c0.4-0.2,1.7-0.7,2.3-5.6c0.1-1,0.6-1,0.6-1c0.1,0,0.3-0.1,0.3-0.3l0.1-2.4
				C33.3,39.2,33.2,39.1,33.1,39z M13.3,46.5c-0.4,0.9-1.1,1.4-1.9,1.7c-0.3,0.1-0.5,0.1-0.8,0.2c-0.3,0-0.7,0.1-1.1,0.1
				c-0.3,0-0.7,0-1.1,0c0,0-2.6-0.2-4-0.9c-0.3-0.2-0.7-0.8-0.9-1.8C3,43.9,3,41.3,3.7,40.3c0.3-0.4,1.3-0.7,2.9-0.8
				c0.4,0,0.9,0,1.3,0c2.9,0,5.9,0.5,6.3,0.8C14.7,40.9,14.3,44.5,13.3,46.5z M30.5,45.8c-0.2,1-0.6,1.6-0.9,1.8
				c-0.7,0.3-1.7,0.5-2.5,0.7c-0.8,0.1-1.5,0.2-1.5,0.2c-0.8,0.1-1.6,0.1-2.2,0c-0.2,0-0.3,0-0.5-0.1c-1-0.2-1.7-0.8-2.2-1.8
				c-1-2-1.4-5.6-0.9-6.2c0.3-0.3,3.4-0.8,6.3-0.8c0.4,0,0.9,0,1.3,0c1.5,0.1,2.6,0.4,2.9,0.8C31,41.3,31,43.9,30.5,45.8z"/>
		</g>
	</g>
	<g>
		<path class="st2" d="M45.5,4.6h8.9v11.5h0.2c1.7-2.7,3.9-4.5,7.2-4.5c3.6,0,6.2,2.1,6.2,7.6v14.7h-8.9V22.4c0-1.8-0.6-3-2.2-3
			c-1.5,0-2.4,0.9-2.4,3.4v11h-8.9V4.6z"/>
		<path class="st2" d="M68.8,23c0-6.8,3.2-11.4,11.4-11.4c6.5,0,10.9,3.1,10.9,11v2.8H77.6c0,1.8,1.5,3,5.3,3c2.4,0,5-0.4,7.5-1.5
			V33c-2.1,0.9-5,1.5-8.9,1.5C73.9,34.6,68.8,31.3,68.8,23z M83.6,20.5c0-1.8-0.9-3-3-3c-1.8,0-3,0.9-3,3H83.6z"/>
		<path class="st2" d="M90.8,29.1c0-4,3.5-5.6,6.1-6.2c2.2-0.5,5.8-1.4,5.8-3.1c0-0.9-1-1.6-2.9-1.6c-2.2,0-5.1,1-7.2,2.5v-6.9
			c2.5-1.4,6.5-2.2,9.6-2.2c5.6,0,9.1,2.5,9.2,8.7c0,3.7,0.1,5.6,0.2,7.2c0.2,2.2,0.5,4.3,1.2,6.4h-8.2c-0.3-0.7-0.6-1.6-0.9-3.2
			h-0.2c-1.6,2.8-3.8,3.9-6.5,3.9C93.3,34.6,90.8,32.4,90.8,29.1z M100.6,29c1.6,0,2.4-1.3,2.4-3.9v-0.5c-0.7,0.7-1.9,1.2-2.6,1.6
			c-0.8,0.5-1.1,1.1-1.1,1.7C99.3,28.6,99.8,29,100.6,29z"/>
		<path class="st2" d="M114.7,24v-4.4h-3v-4.3c2.4-2.4,4.1-4.6,6.6-7.6h5.3v4.7h5.5v7.2h-5.5V24c0,1.4,0,4.4,3.1,4.4
			c0.7,0,2.1-0.2,2.8-0.5v5.9c-0.8,0.4-2.7,0.8-5.3,0.8C114.7,34.6,114.7,29.2,114.7,24z"/>
		<path class="st1" d="M129.6,12.3h9.3c0.9,4.4,1.6,8.5,2,12.9h0.3c0.6-4.4,1.3-8.5,2.1-12.9h7.7c0.8,4.4,1.5,8.5,2.1,12.9h0.3
			c0.4-4.4,1.1-8.5,2-12.9h9.3l-4.6,21.5h-11c-0.9-5-1.5-8.7-1.9-11.4h-0.3c-0.4,2.7-1.1,6.4-1.9,11.4h-11L129.6,12.3z"/>
		<path class="st1" d="M170.4,12.8c1.4,0,2.9-0.3,4.4-0.6v21.7h-8.9V12.2C167.3,12.5,168.8,12.8,170.4,12.8z M170.4,4.9
			c3.5,0,4.3,1.2,4.3,3.1c0,2.4-1.3,3.2-4.3,3.2c-3,0-4.3-0.9-4.3-3.2C166.1,6.1,166.9,4.9,170.4,4.9z"/>
		<path class="st1" d="M176.1,32.6v-6.1c2.4,1.3,5,2.2,7.5,2.2c1.5,0,2.3-0.3,2.3-1.1c0-0.8-0.8-1.2-2.3-1.7
			c-1.4-0.5-2.8-0.9-3.5-1.2c-2.8-1.2-4.2-3.1-4.2-6c0-4,2.8-7.1,9.9-7.1c3,0,5.9,0.6,8.2,2v6.1c-1.9-1.4-4.1-2.3-6.4-2.3
			c-1.5,0-2.5,0.4-2.5,1.2c0,1.1,2.2,1.8,4.1,2.5c0.9,0.3,1.8,0.7,2.2,0.9c1.4,0.6,3.7,1.7,3.7,5.5c0,4.3-3,7.2-10.6,7.2
			C181.1,34.6,178,34,176.1,32.6z"/>
		<path class="st1" d="M195,23c0-6.8,3.2-11.4,11.4-11.4c6.5,0,10.9,3.1,10.9,11v2.8h-13.4c0,1.8,1.5,3,5.3,3c2.4,0,5-0.4,7.5-1.5
			V33c-2.1,0.9-5,1.5-8.9,1.5C200.1,34.6,195,31.3,195,23z M209.8,20.5c0-1.8-0.9-3-3-3c-1.8,0-3,0.9-3,3H209.8z"/>
		<path class="st1" d="M218.3,12.3h8.7v4.2h0.2c0.5-3.1,2-4.9,5.1-4.9c0.9,0,1.9,0.1,2.7,0.3v8.7c-1.1-0.3-2.2-0.5-3.3-0.5
			c-2.7,0-4.5,1.7-4.5,5.9v7.8h-8.9V12.3z"/>
		<g>
			<path class="st1" d="M48.9,42.8H47v2h-1.4v-5.5H47v2.2h1.9v-2.2h1.4v5.5h-1.4V42.8z"/>
			<path class="st1" d="M52.8,39.4h3.8v1.2h-2.4v1h2.3v1.1h-2.3v1.1h2.5v1.2h-3.9V39.4z"/>
			<path class="st1" d="M60.1,39.4h2l1.8,5.5h-1.4l-0.3-1.1h-2l-0.3,1.1h-1.4L60.1,39.4z M61.8,42.6l-0.3-0.9
				c-0.1-0.4-0.2-0.7-0.3-1.1h-0.1c-0.1,0.5-0.2,0.7-0.4,1.2l-0.3,0.9H61.8z"/>
			<path class="st1" d="M66.4,40.7h-1.6v-1.3h4.6v1.3h-1.6v4.2h-1.4V40.7z"/>
			<path class="st1" d="M71.4,39.4h1.4v5.5h-1.4V39.4z"/>
			<path class="st1" d="M75.3,39.4h1.5c0.7,1.2,1.5,2.6,2,3.6h0.1c-0.1-0.8-0.1-1.6-0.1-3.6h1.4v5.5h-1.5c-0.4-0.7-1.4-2.5-2-3.6
				h-0.1c0.1,0.7,0.1,1.6,0.1,3.6h-1.4V39.4z"/>
			<path class="st1" d="M82.4,42.1c0-1.8,1.1-2.9,2.8-2.9c0.8,0,1.6,0.3,1.9,0.4V41c-0.5-0.2-1-0.4-1.7-0.4c-0.8,0-1.6,0.3-1.6,1.5
				c0,1.1,0.6,1.8,1.6,1.8c0.2,0,0.4-0.1,0.5-0.2v-1.6h1.4v2.2C87,44.7,86.3,45,85.3,45C83.5,45,82.4,44,82.4,42.1z"/>
			<path class="st1" d="M92.1,43.4c0-0.7,0.5-1.3,1.1-1.5c-0.4-0.4-0.6-0.8-0.6-1.3c0-0.7,0.6-1.4,1.8-1.4c1.1,0,1.8,0.5,1.8,1.3
				c0,0.8-0.6,1.3-1.3,1.6l0.8,0.7c0.2-0.2,0.3-0.5,0.4-0.8h1.2c-0.2,0.6-0.5,1-0.9,1.5l1.3,1.2h-1.7l-0.4-0.4
				C95.2,44.8,94.7,45,94,45C92.9,45,92.1,44.4,92.1,43.4z M94.2,44.1c0.3,0,0.5-0.1,0.7-0.3l-1-0.9c-0.3,0.1-0.4,0.3-0.4,0.6
				C93.5,43.9,93.8,44.1,94.2,44.1z M94.3,41.4c0.4-0.2,0.6-0.5,0.6-0.9c0-0.3-0.2-0.5-0.4-0.5c-0.3,0-0.5,0.1-0.5,0.5
				C94,40.8,94.1,41.1,94.3,41.4z"/>
			<path class="st1" d="M103.2,39.4h2l1.8,5.5h-1.4l-0.3-1.1h-2l-0.3,1.1h-1.4L103.2,39.4z M104.9,42.6l-0.3-0.9
				c-0.1-0.4-0.2-0.7-0.3-1.1h-0.1c-0.1,0.5-0.2,0.7-0.4,1.2l-0.3,0.9H104.9z"/>
			<path class="st1" d="M108.9,39.4h1.4v5.5h-1.4V39.4z"/>
			<path class="st1" d="M112.8,39.4h2.6c1.1,0,1.9,0.5,1.9,1.7c0,0.8-0.4,1.4-1.2,1.6l1.4,2.2h-1.6l-1.4-2.2h-0.3v2.2h-1.4V39.4z
				 M114.9,41.9c0.6,0,1-0.2,1-0.7c0-0.4-0.2-0.7-0.8-0.7h-0.9v1.4H114.9z"/>
			<path class="st1" d="M122.1,42.1c0-1.7,0.8-2.9,2.7-2.9c0.6,0,1.3,0.1,1.9,0.4V41c-0.5-0.3-1.1-0.4-1.7-0.4
				c-0.8,0-1.4,0.4-1.4,1.6c0,1,0.4,1.6,1.5,1.6c0.5,0,1.1-0.1,1.7-0.4v1.3c-0.5,0.3-1.1,0.5-2,0.5C123.2,45,122.1,44.2,122.1,42.1z
				"/>
			<path class="st1" d="M128.6,42.1c0-1.7,0.8-2.9,2.7-2.9c1.6,0,2.7,0.8,2.7,2.9c0,1.7-0.8,2.9-2.7,2.9
				C129.7,45,128.6,44.2,128.6,42.1z M131.3,43.9c0.7,0,1.2-0.5,1.2-1.7c0-1-0.3-1.7-1.2-1.7c-0.7,0-1.2,0.5-1.2,1.7
				C130.1,43.2,130.5,43.9,131.3,43.9z"/>
			<path class="st1" d="M136.2,39.4h1.5c0.7,1.2,1.5,2.6,2,3.6h0.1c-0.1-0.8-0.1-1.6-0.1-3.6h1.4v5.5h-1.5c-0.4-0.7-1.4-2.5-2-3.6
				h-0.1c0.1,0.7,0.1,1.6,0.1,3.6h-1.4V39.4z"/>
			<path class="st1" d="M143.5,39.4h2.4c1.5,0,2.6,0.8,2.6,2.8c0,1.7-0.8,2.8-2.7,2.8h-2.3V39.4z M145.7,43.6c0.7,0,1.3-0.4,1.3-1.5
				c0-0.9-0.4-1.5-1.2-1.5h-0.8v2.9H145.7z"/>
			<path class="st1" d="M150.5,39.4h1.4v5.5h-1.4V39.4z"/>
			<path class="st1" d="M155.6,40.7H154v-1.3h4.6v1.3H157v4.2h-1.4V40.7z"/>
			<path class="st1" d="M160.7,39.4h1.4v5.5h-1.4V39.4z"/>
			<path class="st1" d="M164.3,42.1c0-1.7,0.8-2.9,2.7-2.9c1.6,0,2.7,0.8,2.7,2.9c0,1.7-0.8,2.9-2.7,2.9
				C165.3,45,164.3,44.2,164.3,42.1z M166.9,43.9c0.7,0,1.2-0.5,1.2-1.7c0-1-0.3-1.7-1.2-1.7c-0.7,0-1.2,0.5-1.2,1.7
				C165.7,43.2,166.1,43.9,166.9,43.9z"/>
			<path class="st1" d="M171.8,39.4h1.5c0.7,1.2,1.5,2.6,2,3.6h0.1c-0.1-0.8-0.1-1.6-0.1-3.6h1.4v5.5h-1.5c-0.4-0.7-1.4-2.5-2-3.6
				h-0.1c0.1,0.7,0.1,1.6,0.1,3.6h-1.4V39.4z"/>
			<path class="st1" d="M179.1,39.4h1.4v5.5h-1.4V39.4z"/>
			<path class="st1" d="M183,39.4h1.5c0.7,1.2,1.5,2.6,2,3.6h0.1c-0.1-0.8-0.1-1.6-0.1-3.6h1.4v5.5h-1.5c-0.4-0.7-1.4-2.5-2-3.6
				h-0.1c0.1,0.7,0.1,1.6,0.1,3.6H183V39.4z"/>
			<path class="st1" d="M190.1,42.1c0-1.8,1.1-2.9,2.8-2.9c0.8,0,1.6,0.3,1.9,0.4V41c-0.5-0.2-1-0.4-1.7-0.4c-0.8,0-1.6,0.3-1.6,1.5
				c0,1.1,0.6,1.8,1.6,1.8c0.2,0,0.4-0.1,0.5-0.2v-1.6h1.4v2.2c-0.3,0.3-1.1,0.7-2.1,0.7C191.2,45,190.1,44,190.1,42.1z"/>
		</g>
	</g>
</g>
</svg>
