<?xml version="1.0" encoding="utf-8"?>
<!-- Generator: Adobe Illustrator 27.2.0, SVG Export Plug-In . SVG Version: 6.00 Build 0)  -->
<svg version="1.1" id="Layer_1" xmlns="http://www.w3.org/2000/svg" xmlns:xlink="http://www.w3.org/1999/xlink" x="0px" y="0px"
	 viewBox="0 0 470 99.2" style="enable-background:new 0 0 470 99.2;" xml:space="preserve">
<style type="text/css">
	.st0{fill-rule:evenodd;clip-rule:evenodd;fill:#EF5126;}
	.st1{fill:#FFFFFF;}
	.st2{fill:#EF5126;}
</style>
<g>
	<g>
		<g>
			<path class="st0" d="M66.9,64.8c-0.8,3.9-2.5,5.8-4.2,7.6c-1.7,1.9-5.1,2-6.9,0c-1.8-2-4-3.5-7.9-3.6c-6.8-0.3-6.4,3.4-13.7,3.4
				c-7.3,0-7.9-3.7-12.3-3.8c-3.9-0.1-5.9,1.6-8.8,3.8c-2.6,2-6.8,1.4-8.5-1.2c-3.1-4.7-4.8-10.2-4.6-16c0.2-6,2.2-12.4,5.1-17.5
				c0.4-0.7,1.6-0.5,1.7,0.3c0.7,4.6,2.7,8.5,4.9,10.9c0.6,0.7,1.8,0.2,1.6-0.6c-2.4-11.3-0.3-19.8,7.3-30C25,12,30.1,5.8,31.6,0.6
				c0.2-0.8,1.4-0.8,1.7-0.1c3.3,7.5,0.8,15.7-0.9,23.3c-1.5,6.6-1.8,14.9,3.6,20.1c0.6,0.6,1.7,0.1,1.6-0.6
				c-1.5-10.1,1.5-19.5,9.1-25.3c0.6-0.5,1.6-0.1,1.5,0.7c-1.3,12.3,9.8,17.5,8.2,32.7c-0.1,0.8,1,1.2,1.6,0.6c3.1-3.2,4.7-7,5.3-11
				c0.1-0.8,1.4-0.9,1.8-0.2C68.8,48,68.4,57.2,66.9,64.8z"/>
		</g>
		<g>
			<path class="st1" d="M66.2,78c-0.2-0.1-5.5-1.9-15.6-1.9c-6.1,0-9.2,0.7-11.7,1.3c-1.7,0.4-3.1,0.7-4.9,0.7
				c-1.8,0-3.2-0.3-4.9-0.7c-2.5-0.6-5.6-1.3-11.8-1.3C7.2,76.1,2,77.9,1.8,78c-0.2,0.1-0.4,0.3-0.4,0.5l0.2,4.9
				c0,0.3,0.2,0.5,0.5,0.5c0,0,1,0.1,1.2,2c0.3,2.4,1.3,9.9,4.6,11.2c2.4,1,7.6,2.1,11.9,2c1.2,0,2.4-0.2,3.4-0.5c0,0,0,0,0,0
				c0.2-0.1,0.4-0.1,0.6-0.2c4-1.6,7.3-7,8.5-14.1c0-0.3,0.3-0.5,0.6-0.5h2.3c0.3,0,0.5,0.2,0.6,0.5c1.2,7.1,4.5,12.6,8.5,14.1
				c0.2,0.1,0.4,0.1,0.6,0.2c1,0.3,2.2,0.5,3.4,0.5c0.3,0,0.5,0,0.8,0c4.1,0,8.8-1.1,11.1-2c0.8-0.3,3.3-1.4,4.6-11.2
				c0.2-1.9,1.2-2,1.2-2c0.3,0,0.5-0.2,0.5-0.5l0.2-4.9C66.6,78.3,66.4,78.1,66.2,78z M26.6,93c-0.9,1.8-2.1,2.9-3.8,3.4
				c-0.5,0.2-1.1,0.3-1.7,0.4c-0.7,0.1-1.4,0.1-2.2,0.1c-0.7,0-1.4,0-2.2-0.1c0,0-5.1-0.4-7.9-1.7c-0.7-0.3-1.4-1.7-1.9-3.6
				c-0.9-3.7-1-9,0.5-11c0.6-0.8,2.7-1.4,5.7-1.5C14,79,14.9,79,15.8,79c5.8,0,11.9,1,12.5,1.7C29.4,81.8,28.6,89,26.6,93z
				 M61.1,91.6c-0.5,1.9-1.2,3.3-1.9,3.6c-1.4,0.6-3.4,1.1-5,1.3c-1.6,0.3-2.9,0.4-2.9,0.4c-1.7,0.1-3.2,0.1-4.4,0
				c-0.3,0-0.7-0.1-1-0.2c-2-0.5-3.5-1.5-4.5-3.6c-2-4.1-2.8-11.2-1.7-12.4C40.3,80,46.4,79,52.2,79c0.9,0,1.8,0,2.6,0.1
				c3.1,0.2,5.2,0.8,5.7,1.5C62,82.5,62,87.8,61.1,91.6z"/>
		</g>
	</g>
	<g>
		<path class="st2" d="M91,9.1h17.8v23h0.4c3.4-5.3,7.8-9,14.4-9c7.2,0,12.3,4.2,12.3,15.2v29.4h-17.8V44.9c0-3.6-1.3-6-4.5-6
			c-2.9,0-4.8,1.9-4.8,6.9v22H91V9.1z"/>
		<path class="st2" d="M137.6,45.9c0-13.6,6.4-22.7,22.7-22.7c13.1,0,21.8,6.2,21.8,22.1v5.7h-26.9c0,3.5,3,5.9,10.7,5.9
			c4.8,0,10-0.9,14.9-2.9v12.1c-4.2,1.8-10.1,3-17.8,3C147.7,69.1,137.6,62.6,137.6,45.9z M167.2,40.9c0-3.6-1.7-6-6-6
			c-3.5,0-5.9,1.7-5.9,6H167.2z"/>
		<path class="st2" d="M181.7,58.2c0-7.9,7-11.1,12.1-12.3c4.3-1,11.6-2.8,11.6-6.1c0-1.8-2.1-3.3-5.9-3.3c-4.5,0-10.2,2-14.3,5
			V27.7c5.1-2.8,12.9-4.5,19.3-4.5c11.3,0,18.2,5,18.3,17.5c0.1,7.5,0.2,11.1,0.4,14.3c0.3,4.5,1,8.6,2.4,12.8h-16.5
			c-0.7-1.5-1.2-3.3-1.7-6.4h-0.4c-3.3,5.6-7.6,7.8-13,7.8C186.6,69.1,181.7,64.8,181.7,58.2z M201.1,58c3.1,0,4.8-2.6,4.8-7.8v-1
			c-1.5,1.5-3.7,2.3-5.2,3.2c-1.6,1-2.2,2.2-2.2,3.4C198.5,57.3,199.6,58,201.1,58z"/>
		<path class="st2" d="M229.4,47.9v-8.8h-5.9v-8.6c4.7-4.7,8.3-9.1,13.2-15.2h10.7v9.4h10.9v14.5h-11v8.8c0,2.8,0,8.8,6.2,8.8
			c1.5,0,4.1-0.3,5.5-0.9v11.8c-1.6,0.8-5.4,1.6-10.5,1.6C229.4,69.1,229.4,58.3,229.4,47.9z"/>
		<path class="st1" d="M259.2,24.6h18.7c1.8,8.9,3.3,17,4,25.8h0.6c1.3-8.9,2.7-17,4.2-25.8h15.4c1.6,8.9,2.9,17,4.2,25.8h0.6
			c0.8-8.9,2.2-17,4-25.8h18.7l-9.1,43.1h-22.1c-1.7-10-3-17.5-3.8-22.8h-0.5c-0.9,5.3-2.2,12.8-3.9,22.8h-22.1L259.2,24.6z"/>
		<path class="st1" d="M340.8,25.6c2.8,0,5.8-0.5,8.9-1.2v43.3h-17.8V24.4C334.7,25,337.6,25.6,340.8,25.6z M340.9,9.7
			c7,0,8.6,2.5,8.6,6.3c0,4.7-2.6,6.5-8.6,6.5c-6,0-8.6-1.7-8.6-6.5C332.2,12.2,333.9,9.7,340.9,9.7z"/>
		<path class="st1" d="M352.2,65.1V53c4.7,2.7,10,4.4,15,4.4c2.9,0,4.7-0.6,4.7-2.2c0-1.6-1.5-2.4-4.6-3.4c-2.8-0.9-5.6-1.9-7.1-2.5
			c-5.6-2.3-8.4-6.3-8.4-12c0-7.9,5.6-14.1,19.8-14.1c6,0,11.8,1.2,16.5,4v12.1c-3.9-2.8-8.2-4.6-12.8-4.6c-3,0-5,0.8-5,2.3
			c0,2.2,4.3,3.6,8.3,5c1.9,0.7,3.5,1.4,4.3,1.7c2.8,1.2,7.4,3.4,7.4,10.9c0,8.5-5.9,14.3-21.3,14.3C362.1,69.1,355.9,68,352.2,65.1
			z"/>
		<path class="st1" d="M390.1,45.9c0-13.6,6.4-22.7,22.7-22.7c13.1,0,21.8,6.2,21.8,22.1v5.7h-26.9c0,3.5,3,5.9,10.7,5.9
			c4.8,0,10-0.9,14.9-2.9v12.1c-4.2,1.8-10.1,3-17.8,3C400.2,69.1,390.1,62.6,390.1,45.9z M419.7,40.9c0-3.6-1.7-6-6-6
			c-3.5,0-5.9,1.7-5.9,6H419.7z"/>
		<path class="st1" d="M436.7,24.6h17.4V33h0.4c1-6.3,4-9.8,10.2-9.8c1.8,0,3.7,0.2,5.3,0.7v17.5c-2.2-0.6-4.4-1-6.5-1
			c-5.3,0-9,3.4-9,11.9v15.5h-17.8V24.6z"/>
		<g>
			<path class="st1" d="M97.8,85.7h-3.9v4.1H91v-11h2.9v4.4h3.9v-4.4h2.9v11h-2.9V85.7z"/>
			<path class="st1" d="M105.5,78.8h7.7v2.3h-4.8v2.1h4.6v2.1h-4.6v2.2h4.9v2.3h-7.8V78.8z"/>
			<path class="st1" d="M120.3,78.8h3.9l3.6,11h-2.9l-0.7-2.2h-4l-0.7,2.2h-2.9L120.3,78.8z M123.5,85.2l-0.5-1.8
				c-0.2-0.8-0.4-1.4-0.7-2.3h-0.1c-0.3,1-0.4,1.4-0.7,2.4l-0.5,1.7H123.5z"/>
			<path class="st1" d="M132.8,81.4h-3.2v-2.7h9.3v2.7h-3.2v8.3h-2.9V81.4z"/>
			<path class="st1" d="M142.9,78.8h2.9v11h-2.9V78.8z"/>
			<path class="st1" d="M150.6,78.8h3.1c1.4,2.5,3,5.2,3.9,7.1h0.1c-0.1-1.6-0.2-3.3-0.2-7.1h2.9v11h-3.1c-0.9-1.5-2.8-5-3.9-7.1
				h-0.1c0.1,1.5,0.2,3.2,0.2,7.1h-2.9V78.8z"/>
			<path class="st1" d="M164.7,84.2c0-3.7,2.1-5.8,5.6-5.8c1.7,0,3.1,0.5,3.8,0.9v2.6c-1-0.5-2-0.9-3.3-0.9c-1.7,0-3.1,0.7-3.1,3.1
				c0,2.2,1.2,3.6,3.2,3.6c0.4,0,0.8-0.1,1-0.3v-3.2h2.8v4.4c-0.7,0.7-2.1,1.4-4.1,1.4C167,90.1,164.7,88,164.7,84.2z"/>
			<path class="st1" d="M184.2,86.9c0-1.4,1-2.5,2.3-3c-0.8-0.8-1.2-1.7-1.2-2.6c0-1.5,1.2-2.7,3.6-2.7c2.2,0,3.7,1,3.7,2.7
				c0,1.6-1.1,2.6-2.6,3.3l1.5,1.5c0.3-0.5,0.6-1,0.8-1.5h2.5c-0.4,1.2-1,2.1-1.7,3l2.5,2.4h-3.4l-0.9-0.9c-0.8,0.6-1.9,1.1-3.2,1.1
				C185.8,90.1,184.2,88.7,184.2,86.9z M188.4,88.2c0.5,0,1-0.2,1.5-0.6l-1.9-1.8c-0.6,0.3-0.9,0.7-0.9,1.2
				C187,87.7,187.6,88.2,188.4,88.2z M188.6,82.9c0.8-0.4,1.3-0.9,1.3-1.7c0-0.7-0.4-0.9-0.9-0.9c-0.5,0-1,0.2-1,1
				C188,81.7,188.2,82.2,188.6,82.9z"/>
			<path class="st1" d="M206.5,78.8h3.9l3.6,11h-2.9l-0.7-2.2h-4l-0.7,2.2h-2.9L206.5,78.8z M209.7,85.2l-0.5-1.8
				c-0.2-0.8-0.4-1.4-0.7-2.3h-0.1c-0.3,1-0.4,1.4-0.7,2.4l-0.5,1.7H209.7z"/>
			<path class="st1" d="M217.8,78.8h2.9v11h-2.9V78.8z"/>
			<path class="st1" d="M225.5,78.8h5.3c2.2,0,3.7,1,3.7,3.4c0,1.6-0.7,2.8-2.4,3.2l2.8,4.4h-3.1l-2.7-4.3h-0.6v4.3h-2.9V78.8z
				 M229.8,83.9c1.2,0,1.9-0.4,1.9-1.4c0-0.8-0.4-1.3-1.5-1.3h-1.9v2.8H229.8z"/>
			<path class="st1" d="M244.2,84.3c0-3.5,1.5-5.8,5.3-5.8c1.3,0,2.6,0.3,3.9,0.9v2.6c-1.1-0.5-2.2-0.9-3.4-0.9
				c-1.7,0-2.8,0.9-2.8,3.1c0,2,0.8,3.2,2.9,3.2c1,0,2.1-0.2,3.4-0.8v2.5c-0.9,0.5-2.3,0.9-3.9,0.9
				C246.4,90.1,244.2,88.4,244.2,84.3z"/>
			<path class="st1" d="M257.3,84.3c0-3.5,1.5-5.8,5.4-5.8c3.2,0,5.4,1.6,5.4,5.8c0,3.5-1.5,5.8-5.4,5.8
				C259.4,90.1,257.3,88.4,257.3,84.3z M262.6,87.8c1.4,0,2.4-1,2.4-3.5c0-2.1-0.7-3.5-2.4-3.5c-1.4,0-2.4,1-2.4,3.5
				C260.2,86.4,260.9,87.8,262.6,87.8z"/>
			<path class="st1" d="M272.3,78.8h3.1c1.4,2.5,3,5.2,3.9,7.1h0.1c-0.1-1.6-0.2-3.3-0.2-7.1h2.9v11h-3.1c-0.9-1.5-2.8-5-3.9-7.1
				H275c0.1,1.5,0.2,3.2,0.2,7.1h-2.9V78.8z"/>
			<path class="st1" d="M287,78.8h4.8c3,0,5.1,1.5,5.1,5.5c0,3.3-1.5,5.5-5.4,5.5H287V78.8z M291.3,87.2c1.5,0,2.6-0.8,2.6-2.9
				c0-1.8-0.8-2.9-2.5-2.9h-1.6v5.9H291.3z"/>
			<path class="st1" d="M301.1,78.8h2.9v11h-2.9V78.8z"/>
			<path class="st1" d="M311.2,81.4H308v-2.7h9.3v2.7h-3.2v8.3h-2.9V81.4z"/>
			<path class="st1" d="M321.3,78.8h2.9v11h-2.9V78.8z"/>
			<path class="st1" d="M328.5,84.3c0-3.5,1.5-5.8,5.4-5.8c3.2,0,5.4,1.6,5.4,5.8c0,3.5-1.5,5.8-5.4,5.8
				C330.7,90.1,328.5,88.4,328.5,84.3z M333.9,87.8c1.4,0,2.4-1,2.4-3.5c0-2.1-0.7-3.5-2.4-3.5c-1.4,0-2.4,1-2.4,3.5
				C331.5,86.4,332.2,87.8,333.9,87.8z"/>
			<path class="st1" d="M343.6,78.8h3.1c1.4,2.5,3,5.2,3.9,7.1h0.1c-0.1-1.6-0.2-3.3-0.2-7.1h2.9v11h-3.1c-0.9-1.5-2.8-5-3.9-7.1
				h-0.1c0.1,1.5,0.2,3.2,0.2,7.1h-2.9V78.8z"/>
			<path class="st1" d="M358.3,78.8h2.9v11h-2.9V78.8z"/>
			<path class="st1" d="M366,78.8h3.1c1.4,2.5,3,5.2,3.9,7.1h0.1c-0.1-1.6-0.2-3.3-0.2-7.1h2.9v11h-3.1c-0.9-1.5-2.8-5-3.9-7.1h-0.1
				c0.1,1.5,0.2,3.2,0.2,7.1H366V78.8z"/>
			<path class="st1" d="M380.1,84.2c0-3.7,2.1-5.8,5.6-5.8c1.7,0,3.1,0.5,3.8,0.9v2.6c-1-0.5-2-0.9-3.3-0.9c-1.7,0-3.1,0.7-3.1,3.1
				c0,2.2,1.2,3.6,3.2,3.6c0.4,0,0.8-0.1,1-0.3v-3.2h2.8v4.4c-0.7,0.7-2.1,1.4-4.1,1.4C382.3,90.1,380.1,88,380.1,84.2z"/>
		</g>
	</g>
</g>
</svg>
