<?xml version="1.0" encoding="utf-8"?>
<!-- Generator: Adobe Illustrator 27.2.0, SVG Export Plug-In . SVG Version: 6.00 Build 0)  -->
<svg version="1.1" id="Layer_1" xmlns="http://www.w3.org/2000/svg" xmlns:xlink="http://www.w3.org/1999/xlink" x="0px" y="0px"
	 viewBox="0 0 192 192" style="enable-background:new 0 0 192 192;" xml:space="preserve">
<style type="text/css">
	.st0{fill-rule:evenodd;clip-rule:evenodd;fill:#EF5126;}
</style>
<g>
	<g>
		<path class="st0" d="M159.8,125.3c-1.5,7.6-4.9,11.2-8.1,14.7c-3.4,3.8-9.9,3.8-13.3,0.1c-3.5-3.9-7.7-6.7-15.4-7
			c-13.1-0.5-12.5,6.5-26.5,6.5c-14.1,0-15.3-7.2-23.8-7.4c-7.6-0.1-11.4,3.2-17,7.4c-5.1,3.9-13.1,2.7-16.5-2.4
			c-6.1-9.1-9.4-19.8-9-31.1c0.4-11.6,4.2-24,9.8-33.9c0.8-1.3,3.1-1,3.3,0.5c1.3,8.9,5.3,16.5,9.5,21.2c1.1,1.3,3.5,0.4,3.2-1.2
			c-4.6-21.8-0.5-38.3,14-58.1c8.5-11.5,18.4-23.4,21.3-33.5c0.4-1.5,2.8-1.6,3.4-0.2c6.3,14.6,1.6,30.5-1.7,45.1
			c-2.8,12.7-3.5,28.8,7,38.9c1.2,1.1,3.3,0.3,3.1-1.2c-2.9-19.6,2.9-37.8,17.6-49c1.2-0.9,3.1-0.1,2.9,1.3
			c-2.4,23.8,19,33.9,15.8,63.3c-0.2,1.5,2,2.3,3.1,1.1c5.9-6.2,9.2-13.6,10.3-21.2c0.2-1.5,2.7-1.8,3.4-0.4
			C163.3,92.8,162.6,110.7,159.8,125.3z"/>
	</g>
	<g>
		<path d="M158.4,151c-0.4-0.1-10.6-3.6-30.2-3.6c-11.8,0-17.9,1.4-22.7,2.6c-3.3,0.8-5.9,1.4-9.5,1.4c-3.5,0-6.1-0.6-9.5-1.4
			c-4.9-1.2-10.9-2.6-22.7-2.6c-19.6,0-29.8,3.5-30.2,3.6c-0.4,0.2-0.7,0.6-0.7,1l0.4,9.4c0,0.6,0.4,1,1,1c0.1,0,1.9,0.2,2.3,4
			c0.6,4.7,2.4,19.1,8.9,21.7c4.7,1.9,14.7,4.1,22.9,3.8c2.4-0.1,4.6-0.4,6.6-1c0,0,0,0,0,0c0.4-0.1,0.8-0.3,1.2-0.4
			c7.8-3.1,14.1-13.5,16.4-27.4c0.1-0.5,0.6-0.9,1.1-0.9h4.5c0.5,0,1,0.4,1.1,0.9c2.4,13.8,8.7,24.3,16.4,27.4
			c0.4,0.1,0.8,0.3,1.2,0.4c1.9,0.6,4.2,0.9,6.6,1c0.5,0,1,0,1.5,0c7.9,0,17-2.1,21.4-3.8c1.6-0.7,6.4-2.6,8.9-21.7
			c0.5-3.7,2.3-4,2.3-4c0.5,0,1-0.5,1-1l0.4-9.4C159.1,151.6,158.8,151.2,158.4,151z M81.7,180.1c-1.7,3.6-4.1,5.6-7.3,6.6
			c-1,0.3-2.1,0.6-3.3,0.7c-1.3,0.2-2.7,0.2-4.3,0.2c-1.3,0-2.8-0.1-4.3-0.2c-0.1,0-9.9-0.8-15.3-3.3c-1.3-0.6-2.7-3.2-3.6-7
			c-1.8-7.2-1.9-17.5,1-21.3c1.1-1.5,5.2-2.6,11.1-3c1.7-0.1,3.4-0.1,5.1-0.1c11.2,0,23,1.9,24.2,3.2
			C87,158.3,85.5,172.2,81.7,180.1z M148.4,177.2c-1,3.8-2.3,6.4-3.6,7c-2.7,1.3-6.5,2.1-9.7,2.6c-3.1,0.5-5.6,0.7-5.7,0.7
			c-3.3,0.2-6.1,0.2-8.6-0.1c-0.6-0.1-1.3-0.2-1.9-0.3c-3.9-0.9-6.7-2.9-8.7-7c-3.8-7.9-5.3-21.7-3.3-24.1c1.2-1.2,13-3.2,24.2-3.2
			c1.7,0,3.4,0,5.1,0.1c5.9,0.4,10,1.5,11.1,3C150.3,159.7,150.2,170,148.4,177.2z"/>
	</g>
</g>
</svg>
