<?xml version="1.0" encoding="utf-8"?>
<!-- Generator: Adobe Illustrator 27.2.0, SVG Export Plug-In . SVG Version: 6.00 Build 0)  -->
<svg version="1.1" id="Layer_1" xmlns="http://www.w3.org/2000/svg" xmlns:xlink="http://www.w3.org/1999/xlink" x="0px" y="0px"
	 viewBox="0 0 180 180" style="enable-background:new 0 0 180 180;" xml:space="preserve">
<style type="text/css">
	.st0{fill-rule:evenodd;clip-rule:evenodd;fill:#EF5126;}
</style>
<g>
	<g>
		<path class="st0" d="M149.8,117.5c-1.4,7.1-4.6,10.5-7.6,13.8c-3.1,3.5-9.3,3.6-12.5,0.1c-3.3-3.6-7.2-6.3-14.4-6.6
			c-12.3-0.5-11.7,6.1-24.9,6.1c-13.2,0-14.4-6.8-22.3-6.9c-7.2-0.1-10.7,3-15.9,6.9c-4.8,3.6-12.3,2.6-15.4-2.2
			c-5.7-8.6-8.8-18.6-8.4-29.1c0.4-10.9,3.9-22.5,9.2-31.8c0.7-1.3,2.9-0.9,3.1,0.5c1.2,8.4,4.9,15.4,8.9,19.9
			c1.1,1.2,3.3,0.4,3-1.1C48.3,66.5,52,51.1,65.7,32.5c7.9-10.8,17.2-21.9,19.9-31.4c0.4-1.4,2.6-1.5,3.2-0.2
			c5.9,13.7,1.5,28.6-1.6,42.3c-2.7,11.9-3.3,27,6.6,36.4c1.1,1,3.1,0.3,2.9-1.1c-2.7-18.3,2.7-35.4,16.5-46
			c1.1-0.9,2.9-0.1,2.8,1.2c-2.3,22.3,17.8,31.8,14.8,59.3c-0.2,1.4,1.9,2.1,2.9,1c5.5-5.8,8.6-12.8,9.7-19.9
			c0.2-1.5,2.5-1.7,3.2-0.4C153.1,87,152.4,103.8,149.8,117.5z"/>
	</g>
	<g>
		<path d="M148.5,141.6c-0.4-0.1-9.9-3.4-28.3-3.4c-11.1,0-16.8,1.4-21.3,2.4c-3.1,0.7-5.5,1.3-8.9,1.3c-3.3,0-5.8-0.6-8.9-1.3
			c-4.6-1.1-10.2-2.4-21.3-2.4c-18.4,0-27.9,3.3-28.3,3.4c-0.4,0.1-0.7,0.5-0.7,1l0.4,8.8c0,0.5,0.4,0.9,0.9,0.9
			c0.1,0,1.7,0.2,2.2,3.7c0.6,4.4,2.3,17.9,8.3,20.3c4.4,1.8,13.8,3.9,21.5,3.6c2.2-0.1,4.4-0.4,6.2-0.9c0,0,0,0,0,0
			c0.4-0.1,0.8-0.2,1.1-0.4c7.3-2.9,13.2-12.7,15.4-25.6c0.1-0.5,0.5-0.9,1-0.9h4.2c0.5,0,0.9,0.4,1,0.9
			c2.2,12.9,8.1,22.8,15.4,25.6c0.4,0.1,0.7,0.3,1.1,0.4c1.8,0.5,3.9,0.8,6.2,0.9c0.5,0,1,0,1.4,0c7.4,0,16-1.9,20.1-3.6
			c1.5-0.6,6-2.5,8.3-20.3c0.4-3.5,2.1-3.7,2.2-3.7c0.5,0,0.9-0.4,1-0.9l0.4-8.8C149.2,142.1,148.9,141.7,148.5,141.6z M76.6,168.8
			c-1.6,3.4-3.8,5.2-6.9,6.2c-0.9,0.3-2,0.5-3,0.7c-1.2,0.2-2.6,0.2-4,0.2c-1.3,0-2.6-0.1-4-0.1c-0.1,0-9.3-0.8-14.4-3.1
			c-1.2-0.6-2.5-3-3.4-6.5c-1.7-6.8-1.8-16.4,0.9-19.9c1.1-1.4,4.9-2.5,10.4-2.8c1.6-0.1,3.1-0.1,4.8-0.1c10.5,0,21.6,1.8,22.7,3
			C81.6,148.5,80.2,161.4,76.6,168.8z M139.1,166.1c-0.9,3.5-2.2,6-3.4,6.5c-2.5,1.2-6.1,1.9-9.1,2.4c-2.9,0.5-5.3,0.7-5.3,0.7
			c-3.1,0.2-5.7,0.2-8.1-0.1c-0.6-0.1-1.2-0.2-1.7-0.3c-3.7-0.8-6.3-2.8-8.2-6.6c-3.6-7.4-5-20.4-3.1-22.6c1.1-1.2,12.2-3,22.7-3
			c1.6,0,3.2,0,4.8,0.1c5.6,0.3,9.3,1.4,10.4,2.8C140.9,149.8,140.8,159.4,139.1,166.1z"/>
	</g>
</g>
</svg>
