<?xml version="1.0" encoding="utf-8"?>
<!-- Generator: Adobe Illustrator 27.2.0, SVG Export Plug-In . SVG Version: 6.00 Build 0)  -->
<svg version="1.1" id="Layer_1" xmlns="http://www.w3.org/2000/svg" xmlns:xlink="http://www.w3.org/1999/xlink" x="0px" y="0px"
	 viewBox="0 0 64 64" style="enable-background:new 0 0 64 64;" xml:space="preserve">
<style type="text/css">
	.st0{fill-rule:evenodd;clip-rule:evenodd;fill:#EF5126;}
</style>
<g>
	<g>
		<path class="st0" d="M53.3,41.8c-0.5,2.5-1.6,3.7-2.7,4.9c-1.1,1.3-3.3,1.3-4.4,0c-1.2-1.3-2.6-2.2-5.1-2.3
			c-4.4-0.2-4.2,2.2-8.8,2.2c-4.7,0-5.1-2.4-7.9-2.5c-2.5,0-3.8,1.1-5.7,2.5c-1.7,1.3-4.4,0.9-5.5-0.8c-2-3-3.1-6.6-3-10.4
			c0.1-3.9,1.4-8,3.3-11.3c0.3-0.4,1-0.3,1.1,0.2c0.4,3,1.8,5.5,3.2,7.1c0.4,0.4,1.2,0.1,1.1-0.4c-1.5-7.3-0.2-12.8,4.7-19.4
			c2.8-3.8,6.1-7.8,7.1-11.2c0.1-0.5,0.9-0.5,1.1-0.1c2.1,4.9,0.5,10.2-0.6,15c-0.9,4.2-1.2,9.6,2.3,13c0.4,0.4,1.1,0.1,1-0.4
			c-1-6.5,1-12.6,5.9-16.3c0.4-0.3,1,0,1,0.4c-0.8,7.9,6.3,11.3,5.3,21.1c-0.1,0.5,0.7,0.8,1,0.4c2-2.1,3.1-4.5,3.4-7.1
			c0.1-0.5,0.9-0.6,1.1-0.1C54.4,30.9,54.2,36.9,53.3,41.8z"/>
	</g>
	<g>
		<path d="M52.8,50.3c-0.1,0-3.5-1.2-10.1-1.2c-3.9,0-6,0.5-7.6,0.9c-1.1,0.3-2,0.5-3.2,0.5c-1.2,0-2-0.2-3.2-0.5
			c-1.6-0.4-3.6-0.9-7.6-0.9c-6.5,0-9.9,1.2-10.1,1.2c-0.1,0.1-0.2,0.2-0.2,0.3l0.1,3.1c0,0.2,0.1,0.3,0.3,0.3c0,0,0.6,0.1,0.8,1.3
			c0.2,1.6,0.8,6.4,3,7.2c1.6,0.6,4.9,1.4,7.6,1.3c0.8,0,1.5-0.1,2.2-0.3c0,0,0,0,0,0c0.1,0,0.3-0.1,0.4-0.1c2.6-1,4.7-4.5,5.5-9.1
			c0-0.2,0.2-0.3,0.4-0.3h1.5c0.2,0,0.3,0.1,0.4,0.3c0.8,4.6,2.9,8.1,5.5,9.1c0.1,0,0.3,0.1,0.4,0.1c0.6,0.2,1.4,0.3,2.2,0.3
			c0.2,0,0.3,0,0.5,0c2.6,0,5.7-0.7,7.1-1.3c0.5-0.2,2.1-0.9,3-7.2c0.2-1.2,0.8-1.3,0.8-1.3c0.2,0,0.3-0.2,0.3-0.3l0.1-3.1
			C53,50.5,52.9,50.4,52.8,50.3z M27.2,60c-0.6,1.2-1.4,1.9-2.4,2.2c-0.3,0.1-0.7,0.2-1.1,0.2c-0.4,0.1-0.9,0.1-1.4,0.1
			c-0.4,0-0.9,0-1.4-0.1c0,0-3.3-0.3-5.1-1.1c-0.4-0.2-0.9-1.1-1.2-2.3c-0.6-2.4-0.6-5.8,0.3-7.1c0.4-0.5,1.7-0.9,3.7-1
			c0.6,0,1.1,0,1.7,0c3.7,0,7.7,0.6,8.1,1.1C29,52.8,28.5,57.4,27.2,60z M49.5,59.1c-0.3,1.3-0.8,2.1-1.2,2.3
			c-0.9,0.4-2.2,0.7-3.2,0.9c-1,0.2-1.9,0.2-1.9,0.2c-1.1,0.1-2,0.1-2.9,0c-0.2,0-0.4-0.1-0.6-0.1c-1.3-0.3-2.2-1-2.9-2.3
			c-1.3-2.6-1.8-7.2-1.1-8c0.4-0.4,4.3-1.1,8.1-1.1c0.6,0,1.1,0,1.7,0c2,0.1,3.3,0.5,3.7,1C50.1,53.2,50.1,56.7,49.5,59.1z"/>
	</g>
</g>
</svg>
